<?xml version="1.0" encoding="utf-8"?><svg xmlns="http://www.w3.org/2000/svg" viewBox="0 0 353.48 95.95"><defs><style>.cls-1{fill:#ff2900;}.cls-2{fill:#8cd829;}.cls-3{fill:#ffd300;}.cls-4{fill:#00b5f1;}.cls-5{fill:#0a1641;}</style></defs><g id="Layer_2" data-name="Layer 2"><g id="Layer_2-2" data-name="Layer 2"><polygon class="cls-1" points="41.67 87.28 18.91 74.14 18.91 47.96 41.58 34.87 52.92 41.42 56.69 43.6 60.47 45.78 60.47 37.06 41.67 26.2 11.36 43.6 11.36 78.5 41.67 95.95 83.14 71.96 83.14 63.23 41.67 87.28"/><polygon class="cls-2" points="41.49 0 0.02 23.99 0.02 32.72 41.49 8.67 64.25 21.81 64.25 47.99 41.58 61.08 30.25 54.53 26.47 52.33 22.69 50.14 22.69 58.9 41.49 69.75 71.81 52.35 71.81 17.45 41.49 0"/><polygon class="cls-3" points="22.69 63.23 22.69 71.96 41.67 82.81 83.19 58.9 83.14 23.97 75.58 19.61 75.58 54.51 41.67 74.19 22.69 63.23"/><polygon class="cls-4" points="60.49 32.64 60.49 23.91 41.51 13.06 0 36.98 0.05 71.9 7.6 76.27 7.6 41.37 41.51 21.68 60.49 32.64"/><path class="cls-5" d="M112.73,56.27V39.68h7.08a5,5,0,0,1,2.19.48,5.56,5.56,0,0,1,1.72,1.28,6.16,6.16,0,0,1,1.12,1.81,5.67,5.67,0,0,1,.4,2.06,5.87,5.87,0,0,1-.67,2.71,5.49,5.49,0,0,1-1.85,2.09,4.78,4.78,0,0,1-2.79.81h-3.37v5.35Zm3.83-8.69h3.14a1.45,1.45,0,0,0,.82-.26,1.84,1.84,0,0,0,.6-.77,3,3,0,0,0,.24-1.26,2.7,2.7,0,0,0-.27-1.28,1.79,1.79,0,0,0-.68-.73,1.66,1.66,0,0,0-.85-.24h-3Z"/><path class="cls-5" d="M141.5,52.91v3.36H129.84V39.68h11.45V43h-7.62v3.23h6.55v3.11h-6.55v3.53Z"/><path class="cls-5" d="M153.37,56.39a7.85,7.85,0,0,1-3.37-.71,8.3,8.3,0,0,1-2.6-1.92,8.83,8.83,0,0,1-1.67-2.71,8.59,8.59,0,0,1-.58-3.12,8.06,8.06,0,0,1,.62-3.16,8.52,8.52,0,0,1,1.73-2.67,8,8,0,0,1,2.62-1.86,8.11,8.11,0,0,1,3.32-.68,7.84,7.84,0,0,1,3.36.71,8.13,8.13,0,0,1,2.59,1.93,8.8,8.8,0,0,1,1.67,2.72,8.47,8.47,0,0,1,.59,3.08,8.15,8.15,0,0,1-.61,3.15,8.51,8.51,0,0,1-4.36,4.55A7.85,7.85,0,0,1,153.37,56.39ZM149.05,48a6.12,6.12,0,0,0,.28,1.86,4.87,4.87,0,0,0,.83,1.6,4.07,4.07,0,0,0,1.37,1.13,4.37,4.37,0,0,0,3.78,0,3.89,3.89,0,0,0,1.36-1.15,5.19,5.19,0,0,0,.81-1.63,6.34,6.34,0,0,0,.27-1.83,6,6,0,0,0-.29-1.85,4.81,4.81,0,0,0-.84-1.6,3.94,3.94,0,0,0-1.38-1.11,4.21,4.21,0,0,0-1.84-.4,4.08,4.08,0,0,0-1.91.42,3.92,3.92,0,0,0-1.35,1.14,4.81,4.81,0,0,0-.82,1.61A6.34,6.34,0,0,0,149.05,48Z"/><path class="cls-5" d="M166.41,56.27V39.68h7.09a4.94,4.94,0,0,1,2.18.48,5.45,5.45,0,0,1,1.72,1.28,6,6,0,0,1,1.12,1.81,5.47,5.47,0,0,1,.4,2.06,5.75,5.75,0,0,1-.67,2.71,5.55,5.55,0,0,1-1.84,2.09,4.83,4.83,0,0,1-2.8.81h-3.36v5.35Zm3.84-8.69h3.13a1.43,1.43,0,0,0,.82-.26,1.85,1.85,0,0,0,.61-.77,3.12,3.12,0,0,0,.23-1.26,2.7,2.7,0,0,0-.27-1.28,1.73,1.73,0,0,0-.68-.73,1.63,1.63,0,0,0-.85-.24h-3Z"/><path class="cls-5" d="M183.52,56.27V39.68h3.83V52.91h8.05v3.36Z"/><path class="cls-5" d="M211.4,52.91v3.36H199.74V39.68h11.45V43h-7.62v3.23h6.55v3.11h-6.55v3.53Z"/><path class="cls-5" d="M231.76,39.68h4.14l5.7,16.59h-3.93l-1.12-3.71h-5.46L230,56.27H226Zm4,10.24-1.93-6.39-1.93,6.39Z"/><path class="cls-5" d="M245.78,56.27V39.68h3.84V52.91h8v3.36Z"/><path class="cls-5" d="M260.74,47.81a8.39,8.39,0,0,1,2.2-5.63,8,8,0,0,1,2.61-1.91,8.37,8.37,0,0,1,3.51-.71,7.92,7.92,0,0,1,4.06,1,6.61,6.61,0,0,1,2.56,2.61l-2.95,2.06a3.46,3.46,0,0,0-1-1.38,3.73,3.73,0,0,0-1.36-.69A5.51,5.51,0,0,0,269,43a4,4,0,0,0-1.92.44,3.89,3.89,0,0,0-1.36,1.15,5.2,5.2,0,0,0-.79,1.62,6.37,6.37,0,0,0-.26,1.77,5.68,5.68,0,0,0,.31,1.89,5.05,5.05,0,0,0,.87,1.62,4.17,4.17,0,0,0,1.39,1.11A4,4,0,0,0,269,53a4.52,4.52,0,0,0,1.43-.24,4.09,4.09,0,0,0,1.34-.73,3.21,3.21,0,0,0,1-1.32l3.13,1.84a4.9,4.9,0,0,1-1.61,2.08,8.08,8.08,0,0,1-2.54,1.32,8.86,8.86,0,0,1-2.79.46,7.47,7.47,0,0,1-3.31-.74,8.22,8.22,0,0,1-2.59-2,9.12,9.12,0,0,1-1.69-2.76A8.68,8.68,0,0,1,260.74,47.81Z"/><path class="cls-5" d="M294.61,39.68V56.27h-3.84v-6.8h-6.61v6.8h-3.84V39.68h3.84v6.43h6.61V39.68Z"/><path class="cls-5" d="M312,52.91v3.36H300.33V39.68h11.45V43h-7.62v3.23h6.55v3.11h-6.55v3.53Z"/><path class="cls-5" d="M330,56.27V46.39l-3.58,7.2h-2.1l-3.58-7.2v9.88h-3.83V39.68H321l4.3,8.67,4.32-8.67h4.14V56.27Z"/><path class="cls-5" d="M342.09,39.68,345.67,47l3.62-7.34h4.19l-5.92,10.94v5.65h-3.81v-5.7l-5.82-10.89Z"/></g></g></svg>